<svg xmlns="http://www.w3.org/2000/svg" xmlns:xlink="http://www.w3.org/1999/xlink" width="500" zoomAndPan="magnify" viewBox="0 0 375 149.999998" height="200" preserveAspectRatio="xMidYMid meet" version="1.2"><defs><clipPath id="426be2bc16"><path d="M 57.46875 20.175781 L 236 20.175781 L 236 129.675781 L 57.46875 129.675781 Z M 57.46875 20.175781 "/></clipPath><clipPath id="bd93b2e843"><path d="M 65 23 L 299.660156 23 L 299.660156 126 L 65 126 Z M 65 23 "/></clipPath></defs><g id="11778158fc"><path style=" stroke:none;fill-rule:nonzero;fill:#ffffff;fill-opacity:1;" d="M 293.484375 51.242188 C 293.484375 51.242188 292.023438 55.542969 295.671875 61.957031 C 295.671875 61.957031 296.40625 63.09375 291.207031 60.820312 C 286.015625 58.546875 274.972656 55.21875 218.71875 59.761719 C 218.71875 59.765625 264.421875 51.484375 293.484375 51.242188 Z M 293.484375 51.242188 "/><path style=" stroke:none;fill-rule:nonzero;fill:#c30015;fill-opacity:1;" d="M 258.253906 51.242188 C 258.253906 51.242188 222.574219 57.9375 181.480469 58.667969 C 140.382812 59.398438 132.429688 63.171875 127.476562 65.28125 L 99.226562 66.015625 C 99.226562 66.015625 117.664062 54.179688 170.214844 54.039062 C 216.933594 53.921875 245.101562 51.847656 258.253906 51.242188 Z M 258.253906 51.242188 "/><path style=" stroke:none;fill-rule:nonzero;fill:#c30015;fill-opacity:1;" d="M 288.328125 48.316406 C 288.328125 48.316406 273.230469 51.726562 241.449219 42.351562 C 241.449219 42.351562 203.335938 28.59375 176.183594 52.457031 C 176.183594 52.457031 166.503906 52.214844 160.414062 52.457031 C 160.414062 52.457031 194.304688 27.707031 231.160156 35.65625 C 255.25 40.851562 262.546875 47.300781 288.328125 48.316406 Z M 288.328125 48.316406 "/><g clip-rule="nonzero" clip-path="url(#426be2bc16)"><path style=" stroke:none;fill-rule:nonzero;fill:#c30015;fill-opacity:1;" d="M 195.128906 20.191406 C 209.316406 20.191406 223.003906 21.066406 235.882812 22.6875 C 224.542969 21.457031 212.628906 20.800781 200.335938 20.800781 C 124.445312 20.800781 62.921875 45.820312 62.921875 76.6875 C 62.921875 101.289062 102 122.175781 156.28125 129.644531 C 99.308594 122.832031 57.71875 101.414062 57.71875 76.050781 C 57.71875 45.199219 119.238281 20.191406 195.128906 20.191406 Z M 195.128906 20.191406 "/></g><g clip-rule="nonzero" clip-path="url(#bd93b2e843)"><path style=" stroke:none;fill-rule:nonzero;fill:#ffffff;fill-opacity:1;" d="M 202.789062 23.78125 C 240.617188 23.78125 274.871094 29.691406 299.722656 39.253906 C 276.097656 32.085938 246.089844 27.800781 213.429688 27.800781 C 137.277344 27.800781 75.542969 51.105469 75.542969 79.855469 C 75.542969 99.429688 104.160156 116.476562 146.460938 125.367188 C 98.660156 117.050781 65.375 98.480469 65.375 76.902344 C 65.378906 47.566406 126.898438 23.78125 202.789062 23.78125 Z M 202.789062 23.78125 "/></g><g style="fill:#ffffff;fill-opacity:1;"><g transform="translate(88.172597, 90.457379)"><path style="stroke:none" d="M 1.1875 -9.34375 C 1.507812 -11.1875 2.195312 -12.828125 3.25 -14.265625 C 4.300781 -15.710938 5.601562 -16.835938 7.15625 -17.640625 C 8.71875 -18.441406 10.40625 -18.84375 12.21875 -18.84375 C 14.425781 -18.84375 16.210938 -18.257812 17.578125 -17.09375 C 18.953125 -15.925781 19.726562 -14.332031 19.90625 -12.3125 L 14.921875 -12.3125 C 14.691406 -13.070312 14.269531 -13.648438 13.65625 -14.046875 C 13.050781 -14.453125 12.304688 -14.65625 11.421875 -14.65625 C 10.015625 -14.65625 8.796875 -14.171875 7.765625 -13.203125 C 6.742188 -12.242188 6.09375 -10.957031 5.8125 -9.34375 C 5.726562 -8.84375 5.6875 -8.410156 5.6875 -8.046875 C 5.6875 -6.804688 6.03125 -5.820312 6.71875 -5.09375 C 7.40625 -4.375 8.351562 -4.015625 9.5625 -4.015625 C 10.425781 -4.015625 11.234375 -4.21875 11.984375 -4.625 C 12.734375 -5.03125 13.367188 -5.613281 13.890625 -6.375 L 18.875 -6.375 C 17.988281 -4.351562 16.648438 -2.765625 14.859375 -1.609375 C 13.078125 -0.453125 11.078125 0.125 8.859375 0.125 C 7.273438 0.125 5.890625 -0.179688 4.703125 -0.796875 C 3.515625 -1.410156 2.601562 -2.285156 1.96875 -3.421875 C 1.332031 -4.554688 1.015625 -5.875 1.015625 -7.375 C 1.015625 -8.050781 1.070312 -8.707031 1.1875 -9.34375 Z M 1.1875 -9.34375 "/></g></g><g style="fill:#ffffff;fill-opacity:1;"><g transform="translate(109.265488, 90.457379)"><path style="stroke:none" d="M 12.484375 -3.296875 L 5.515625 -3.296875 L 3.828125 0 L -0.921875 0 L 9.109375 -18.640625 L 14.359375 -18.640625 L 17.8125 0 L 13.015625 0 Z M 11.953125 -6.75 L 10.859375 -13.640625 L 7.296875 -6.75 Z M 11.953125 -6.75 "/></g></g><g style="fill:#ffffff;fill-opacity:1;"><g transform="translate(129.69509, 90.457379)"><path style="stroke:none" d="M 11.203125 -18.640625 C 13.128906 -18.640625 14.597656 -18.203125 15.609375 -17.328125 C 16.617188 -16.453125 17.125 -15.3125 17.125 -13.90625 C 17.125 -13.5 17.085938 -13.117188 17.015625 -12.765625 C 16.804688 -11.523438 16.265625 -10.414062 15.390625 -9.4375 C 14.523438 -8.46875 13.367188 -7.78125 11.921875 -7.375 L 14.921875 0 L 9.796875 0 L 7.171875 -7.03125 L 6.078125 -7.03125 L 4.828125 0 L 0.296875 0 L 3.578125 -18.640625 Z M 12.375 -12.578125 C 12.40625 -12.867188 12.421875 -13.054688 12.421875 -13.140625 C 12.421875 -13.703125 12.238281 -14.140625 11.875 -14.453125 C 11.507812 -14.765625 10.976562 -14.921875 10.28125 -14.921875 L 7.453125 -14.921875 L 6.640625 -10.25 L 9.453125 -10.25 C 10.285156 -10.25 10.941406 -10.453125 11.421875 -10.859375 C 11.910156 -11.265625 12.226562 -11.835938 12.375 -12.578125 Z M 12.375 -12.578125 "/></g></g><g style="fill:#ffffff;fill-opacity:1;"><g transform="translate(147.869532, 90.457379)"><path style="stroke:none" d=""/></g></g><g style="fill:#ffffff;fill-opacity:1;"><g transform="translate(154.874277, 90.457379)"><path style="stroke:none" d="M 10.5625 -18.640625 C 12.28125 -18.640625 13.765625 -18.332031 15.015625 -17.71875 C 16.265625 -17.101562 17.21875 -16.242188 17.875 -15.140625 C 18.539062 -14.035156 18.875 -12.738281 18.875 -11.25 C 18.875 -10.738281 18.8125 -10.09375 18.6875 -9.3125 C 18.375 -7.488281 17.6875 -5.867188 16.625 -4.453125 C 15.570312 -3.046875 14.234375 -1.953125 12.609375 -1.171875 C 10.992188 -0.390625 9.21875 0 7.28125 0 L 0.296875 0 L 3.578125 -18.640625 Z M 7.671875 -3.875 C 9.390625 -3.875 10.8125 -4.351562 11.9375 -5.3125 C 13.070312 -6.269531 13.78125 -7.601562 14.0625 -9.3125 C 14.15625 -9.84375 14.203125 -10.285156 14.203125 -10.640625 C 14.203125 -11.953125 13.800781 -12.96875 13 -13.6875 C 12.207031 -14.40625 11.078125 -14.765625 9.609375 -14.765625 L 7.4375 -14.765625 L 5.515625 -3.875 Z M 7.671875 -3.875 "/></g></g><g style="fill:#ffffff;fill-opacity:1;"><g transform="translate(175.038571, 90.457379)"><path style="stroke:none" d="M 7.484375 -15.046875 L 6.828125 -11.171875 L 12.90625 -11.171875 L 12.296875 -7.75 L 6.21875 -7.75 L 5.46875 -3.578125 L 12.34375 -3.578125 L 11.703125 0 L 0.296875 0 L 3.578125 -18.640625 L 15 -18.640625 L 14.359375 -15.046875 Z M 7.484375 -15.046875 "/></g></g><g style="fill:#ffffff;fill-opacity:1;"><g transform="translate(190.268035, 90.457379)"><path style="stroke:none" d="M 12.484375 -3.296875 L 5.515625 -3.296875 L 3.828125 0 L -0.921875 0 L 9.109375 -18.640625 L 14.359375 -18.640625 L 17.8125 0 L 13.015625 0 Z M 11.953125 -6.75 L 10.859375 -13.640625 L 7.296875 -6.75 Z M 11.953125 -6.75 "/></g></g><g style="fill:#ffffff;fill-opacity:1;"><g transform="translate(210.697638, 90.457379)"><path style="stroke:none" d="M 5.4375 -3.453125 L 11.390625 -3.453125 L 10.78125 0 L 0.296875 0 L 3.578125 -18.640625 L 8.125 -18.640625 Z M 5.4375 -3.453125 "/></g></g><g style="fill:#ffffff;fill-opacity:1;"><g transform="translate(224.229096, 90.457379)"><path style="stroke:none" d="M 7.484375 -15.046875 L 6.828125 -11.171875 L 12.90625 -11.171875 L 12.296875 -7.75 L 6.21875 -7.75 L 5.46875 -3.578125 L 12.34375 -3.578125 L 11.703125 0 L 0.296875 0 L 3.578125 -18.640625 L 15 -18.640625 L 14.359375 -15.046875 Z M 7.484375 -15.046875 "/></g></g><g style="fill:#ffffff;fill-opacity:1;"><g transform="translate(239.458561, 90.457379)"><path style="stroke:none" d="M 11.203125 -18.640625 C 13.128906 -18.640625 14.597656 -18.203125 15.609375 -17.328125 C 16.617188 -16.453125 17.125 -15.3125 17.125 -13.90625 C 17.125 -13.5 17.085938 -13.117188 17.015625 -12.765625 C 16.804688 -11.523438 16.265625 -10.414062 15.390625 -9.4375 C 14.523438 -8.46875 13.367188 -7.78125 11.921875 -7.375 L 14.921875 0 L 9.796875 0 L 7.171875 -7.03125 L 6.078125 -7.03125 L 4.828125 0 L 0.296875 0 L 3.578125 -18.640625 Z M 12.375 -12.578125 C 12.40625 -12.867188 12.421875 -13.054688 12.421875 -13.140625 C 12.421875 -13.703125 12.238281 -14.140625 11.875 -14.453125 C 11.507812 -14.765625 10.976562 -14.921875 10.28125 -14.921875 L 7.453125 -14.921875 L 6.640625 -10.25 L 9.453125 -10.25 C 10.285156 -10.25 10.941406 -10.453125 11.421875 -10.859375 C 11.910156 -11.265625 12.226562 -11.835938 12.375 -12.578125 Z M 12.375 -12.578125 "/></g></g><g style="fill:#ffffff;fill-opacity:1;"><g transform="translate(257.633002, 90.457379)"><path style="stroke:none" d="M 7.703125 0.1875 C 5.679688 0.1875 4.035156 -0.25 2.765625 -1.125 C 1.503906 -2 0.875 -3.242188 0.875 -4.859375 C 0.875 -5.015625 0.890625 -5.253906 0.921875 -5.578125 L 5.65625 -5.578125 C 5.601562 -4.898438 5.757812 -4.363281 6.125 -3.96875 C 6.5 -3.582031 7.066406 -3.390625 7.828125 -3.390625 C 8.515625 -3.390625 9.054688 -3.539062 9.453125 -3.84375 C 9.859375 -4.144531 10.0625 -4.570312 10.0625 -5.125 C 10.0625 -5.6875 9.804688 -6.144531 9.296875 -6.5 C 8.796875 -6.851562 8.015625 -7.253906 6.953125 -7.703125 C 5.929688 -8.117188 5.097656 -8.519531 4.453125 -8.90625 C 3.804688 -9.289062 3.242188 -9.804688 2.765625 -10.453125 C 2.285156 -11.109375 2.046875 -11.929688 2.046875 -12.921875 C 2.023438 -14.148438 2.320312 -15.210938 2.9375 -16.109375 C 3.5625 -17.015625 4.421875 -17.707031 5.515625 -18.1875 C 6.617188 -18.664062 7.878906 -18.90625 9.296875 -18.90625 C 10.566406 -18.90625 11.695312 -18.703125 12.6875 -18.296875 C 13.675781 -17.898438 14.445312 -17.328125 15 -16.578125 C 15.550781 -15.828125 15.828125 -14.9375 15.828125 -13.90625 C 15.828125 -13.644531 15.816406 -13.453125 15.796875 -13.328125 L 10.96875 -13.328125 C 10.976562 -13.398438 10.984375 -13.503906 10.984375 -13.640625 C 10.984375 -14.140625 10.8125 -14.539062 10.46875 -14.84375 C 10.125 -15.15625 9.648438 -15.3125 9.046875 -15.3125 C 8.410156 -15.3125 7.894531 -15.15625 7.5 -14.84375 C 7.101562 -14.539062 6.90625 -14.125 6.90625 -13.59375 C 6.90625 -13.0625 7.148438 -12.613281 7.640625 -12.25 C 8.140625 -11.882812 8.910156 -11.460938 9.953125 -10.984375 C 10.992188 -10.515625 11.847656 -10.070312 12.515625 -9.65625 C 13.179688 -9.25 13.753906 -8.707031 14.234375 -8.03125 C 14.710938 -7.351562 14.953125 -6.515625 14.953125 -5.515625 C 14.953125 -4.421875 14.65625 -3.441406 14.0625 -2.578125 C 13.476562 -1.710938 12.640625 -1.035156 11.546875 -0.546875 C 10.453125 -0.0546875 9.171875 0.1875 7.703125 0.1875 Z M 7.703125 0.1875 "/></g></g><g style="fill:#ffffff;fill-opacity:1;"><g transform="translate(275.011507, 90.457379)"><path style="stroke:none" d="M 19.71875 -18.640625 L 16.4375 0 L 11.890625 0 L 13.25 -7.71875 L 6.1875 -7.71875 L 4.828125 0 L 0.296875 0 L 3.578125 -18.640625 L 8.125 -18.640625 L 6.828125 -11.3125 L 13.890625 -11.3125 L 15.1875 -18.640625 Z M 19.71875 -18.640625 "/></g></g><g style="fill:#ffffff;fill-opacity:1;"><g transform="translate(295.281922, 90.457379)"><path style="stroke:none" d="M 8.125 -18.640625 L 4.828125 0 L 0.296875 0 L 3.578125 -18.640625 Z M 8.125 -18.640625 "/></g></g><g style="fill:#ffffff;fill-opacity:1;"><g transform="translate(303.984673, 90.457379)"><path style="stroke:none" d="M 16.71875 -12.640625 C 16.539062 -11.554688 16.125 -10.566406 15.46875 -9.671875 C 14.820312 -8.773438 13.9375 -8.050781 12.8125 -7.5 C 11.6875 -6.957031 10.363281 -6.6875 8.84375 -6.6875 L 6.03125 -6.6875 L 4.828125 0 L 0.296875 0 L 3.578125 -18.640625 L 10.9375 -18.640625 C 12.882812 -18.640625 14.351562 -18.207031 15.34375 -17.34375 C 16.332031 -16.488281 16.828125 -15.328125 16.828125 -13.859375 C 16.828125 -13.410156 16.789062 -13.003906 16.71875 -12.640625 Z M 9.109375 -10.25 C 10.804688 -10.25 11.804688 -11.046875 12.109375 -12.640625 C 12.140625 -12.921875 12.15625 -13.125 12.15625 -13.25 C 12.15625 -13.8125 11.972656 -14.25 11.609375 -14.5625 C 11.242188 -14.875 10.691406 -15.03125 9.953125 -15.03125 L 7.484375 -15.03125 L 6.65625 -10.25 Z M 9.109375 -10.25 "/></g></g><g style="fill:#ffffff;fill-opacity:1;"><g transform="translate(146.94461, 117.798459)"><path style="stroke:none" d="M 4.09375 -9.40625 L 2.4375 0 L 0.140625 0 L 1.8125 -9.40625 Z M 4.09375 -9.40625 "/></g></g><g style="fill:#ffffff;fill-opacity:1;"><g transform="translate(153.174247, 117.798459)"><path style="stroke:none" d="M 12.453125 -9.40625 L 10.796875 0 L 8.5 0 L 9.5 -5.640625 L 6.40625 0 L 4.546875 0 L 3.421875 -5.671875 L 2.4375 0 L 0.140625 0 L 1.8125 -9.40625 L 4.515625 -9.40625 L 6.015625 -2.890625 L 9.765625 -9.40625 Z M 12.453125 -9.40625 "/></g></g><g style="fill:#ffffff;fill-opacity:1;"><g transform="translate(167.748144, 117.798459)"><path style="stroke:none" d="M 8.4375 -6.375 C 8.34375 -5.832031 8.128906 -5.332031 7.796875 -4.875 C 7.472656 -4.425781 7.023438 -4.0625 6.453125 -3.78125 C 5.890625 -3.507812 5.222656 -3.375 4.453125 -3.375 L 3.046875 -3.375 L 2.4375 0 L 0.140625 0 L 1.8125 -9.40625 L 5.515625 -9.40625 C 6.492188 -9.40625 7.234375 -9.1875 7.734375 -8.75 C 8.234375 -8.3125 8.484375 -7.722656 8.484375 -6.984375 C 8.484375 -6.765625 8.46875 -6.5625 8.4375 -6.375 Z M 4.59375 -5.171875 C 5.445312 -5.171875 5.953125 -5.570312 6.109375 -6.375 C 6.128906 -6.519531 6.140625 -6.625 6.140625 -6.6875 C 6.140625 -6.96875 6.046875 -7.1875 5.859375 -7.34375 C 5.671875 -7.5 5.390625 -7.578125 5.015625 -7.578125 L 3.78125 -7.578125 L 3.359375 -5.171875 Z M 4.59375 -5.171875 "/></g></g><g style="fill:#ffffff;fill-opacity:1;"><g transform="translate(178.3843, 117.798459)"><path style="stroke:none" d="M 6.296875 -1.65625 L 2.78125 -1.65625 L 1.921875 0 L -0.46875 0 L 4.59375 -9.40625 L 7.25 -9.40625 L 8.984375 0 L 6.5625 0 Z M 6.03125 -3.40625 L 5.484375 -6.875 L 3.6875 -3.40625 Z M 6.03125 -3.40625 "/></g></g><g style="fill:#ffffff;fill-opacity:1;"><g transform="translate(190.533945, 117.798459)"><path style="stroke:none" d="M 0.609375 -4.71875 C 0.765625 -5.644531 1.109375 -6.46875 1.640625 -7.1875 C 2.171875 -7.914062 2.828125 -8.484375 3.609375 -8.890625 C 4.398438 -9.296875 5.25 -9.5 6.15625 -9.5 C 7.269531 -9.5 8.171875 -9.203125 8.859375 -8.609375 C 9.554688 -8.023438 9.953125 -7.226562 10.046875 -6.21875 L 7.53125 -6.21875 C 7.40625 -6.59375 7.1875 -6.878906 6.875 -7.078125 C 6.570312 -7.285156 6.203125 -7.390625 5.765625 -7.390625 C 5.054688 -7.390625 4.441406 -7.144531 3.921875 -6.65625 C 3.398438 -6.175781 3.070312 -5.53125 2.9375 -4.71875 C 2.882812 -4.46875 2.859375 -4.25 2.859375 -4.0625 C 2.859375 -3.4375 3.03125 -2.9375 3.375 -2.5625 C 3.726562 -2.195312 4.210938 -2.015625 4.828125 -2.015625 C 5.265625 -2.015625 5.671875 -2.117188 6.046875 -2.328125 C 6.421875 -2.535156 6.738281 -2.832031 7 -3.21875 L 9.515625 -3.21875 C 9.066406 -2.195312 8.390625 -1.394531 7.484375 -0.8125 C 6.585938 -0.226562 5.582031 0.0625 4.46875 0.0625 C 3.664062 0.0625 2.960938 -0.09375 2.359375 -0.40625 C 1.765625 -0.71875 1.304688 -1.15625 0.984375 -1.71875 C 0.671875 -2.289062 0.515625 -2.957031 0.515625 -3.71875 C 0.515625 -4.0625 0.546875 -4.394531 0.609375 -4.71875 Z M 0.609375 -4.71875 "/></g></g><g style="fill:#ffffff;fill-opacity:1;"><g transform="translate(203.018425, 117.798459)"><path style="stroke:none" d="M 8.5625 -9.40625 L 8.265625 -7.59375 L 5.765625 -7.59375 L 4.421875 0 L 2.125 0 L 3.46875 -7.59375 L 0.984375 -7.59375 L 1.296875 -9.40625 Z M 8.5625 -9.40625 "/></g></g><g style="fill:#ffffff;fill-opacity:1;"><g transform="translate(213.212586, 117.798459)"><path style="stroke:none" d=""/></g></g><g style="fill:#ffffff;fill-opacity:1;"><g transform="translate(218.585029, 117.798459)"><path style="stroke:none" d="M 3.890625 0.09375 C 2.867188 0.09375 2.035156 -0.125 1.390625 -0.5625 C 0.753906 -1.007812 0.4375 -1.640625 0.4375 -2.453125 C 0.4375 -2.535156 0.445312 -2.65625 0.46875 -2.8125 L 2.859375 -2.8125 C 2.828125 -2.46875 2.90625 -2.195312 3.09375 -2 C 3.28125 -1.8125 3.566406 -1.71875 3.953125 -1.71875 C 4.296875 -1.71875 4.566406 -1.789062 4.765625 -1.9375 C 4.972656 -2.09375 5.078125 -2.304688 5.078125 -2.578125 C 5.078125 -2.867188 4.945312 -3.101562 4.6875 -3.28125 C 4.4375 -3.457031 4.046875 -3.660156 3.515625 -3.890625 C 2.992188 -4.097656 2.566406 -4.296875 2.234375 -4.484375 C 1.910156 -4.679688 1.628906 -4.941406 1.390625 -5.265625 C 1.148438 -5.597656 1.03125 -6.015625 1.03125 -6.515625 C 1.019531 -7.128906 1.171875 -7.664062 1.484375 -8.125 C 1.796875 -8.582031 2.226562 -8.929688 2.78125 -9.171875 C 3.332031 -9.410156 3.96875 -9.53125 4.6875 -9.53125 C 5.332031 -9.53125 5.90625 -9.429688 6.40625 -9.234375 C 6.90625 -9.035156 7.289062 -8.742188 7.5625 -8.359375 C 7.84375 -7.984375 7.984375 -7.535156 7.984375 -7.015625 C 7.984375 -6.878906 7.976562 -6.78125 7.96875 -6.71875 L 5.53125 -6.71875 C 5.539062 -6.757812 5.546875 -6.8125 5.546875 -6.875 C 5.546875 -7.125 5.457031 -7.328125 5.28125 -7.484375 C 5.101562 -7.640625 4.863281 -7.71875 4.5625 -7.71875 C 4.238281 -7.71875 3.976562 -7.640625 3.78125 -7.484375 C 3.582031 -7.328125 3.484375 -7.117188 3.484375 -6.859375 C 3.484375 -6.585938 3.609375 -6.359375 3.859375 -6.171875 C 4.109375 -5.992188 4.492188 -5.785156 5.015625 -5.546875 C 5.546875 -5.304688 5.976562 -5.082031 6.3125 -4.875 C 6.644531 -4.664062 6.929688 -4.390625 7.171875 -4.046875 C 7.410156 -3.703125 7.53125 -3.28125 7.53125 -2.78125 C 7.53125 -2.226562 7.382812 -1.734375 7.09375 -1.296875 C 6.800781 -0.859375 6.378906 -0.515625 5.828125 -0.265625 C 5.273438 -0.0234375 4.628906 0.09375 3.890625 0.09375 Z M 3.890625 0.09375 "/></g></g><g style="fill:#ffffff;fill-opacity:1;"><g transform="translate(229.194401, 117.798459)"><path style="stroke:none" d="M 8.5625 -9.40625 L 8.265625 -7.59375 L 5.765625 -7.59375 L 4.421875 0 L 2.125 0 L 3.46875 -7.59375 L 0.984375 -7.59375 L 1.296875 -9.40625 Z M 8.5625 -9.40625 "/></g></g><g style="fill:#ffffff;fill-opacity:1;"><g transform="translate(239.388563, 117.798459)"><path style="stroke:none" d="M 4.0625 -9.40625 L 3.0625 -3.796875 C 3.03125 -3.554688 3.015625 -3.394531 3.015625 -3.3125 C 3.015625 -2.894531 3.128906 -2.578125 3.359375 -2.359375 C 3.585938 -2.140625 3.929688 -2.03125 4.390625 -2.03125 C 4.929688 -2.03125 5.367188 -2.179688 5.703125 -2.484375 C 6.046875 -2.796875 6.265625 -3.234375 6.359375 -3.796875 L 7.34375 -9.40625 L 9.640625 -9.40625 L 8.65625 -3.796875 C 8.5 -2.941406 8.191406 -2.222656 7.734375 -1.640625 C 7.285156 -1.054688 6.738281 -0.617188 6.09375 -0.328125 C 5.445312 -0.046875 4.742188 0.09375 3.984375 0.09375 C 3.003906 0.09375 2.210938 -0.160156 1.609375 -0.671875 C 1.003906 -1.179688 0.703125 -1.914062 0.703125 -2.875 C 0.703125 -3.164062 0.734375 -3.472656 0.796875 -3.796875 L 1.765625 -9.40625 Z M 4.0625 -9.40625 "/></g></g><g style="fill:#ffffff;fill-opacity:1;"><g transform="translate(251.10961, 117.798459)"><path style="stroke:none" d="M 5.328125 -9.40625 C 6.191406 -9.40625 6.9375 -9.25 7.5625 -8.9375 C 8.195312 -8.625 8.679688 -8.1875 9.015625 -7.625 C 9.347656 -7.070312 9.515625 -6.421875 9.515625 -5.671875 C 9.515625 -5.421875 9.484375 -5.097656 9.421875 -4.703125 C 9.265625 -3.785156 8.921875 -2.96875 8.390625 -2.25 C 7.859375 -1.53125 7.179688 -0.972656 6.359375 -0.578125 C 5.546875 -0.191406 4.648438 0 3.671875 0 L 0.140625 0 L 1.8125 -9.40625 Z M 3.875 -1.953125 C 4.738281 -1.953125 5.453125 -2.191406 6.015625 -2.671875 C 6.585938 -3.160156 6.945312 -3.835938 7.09375 -4.703125 C 7.132812 -4.972656 7.15625 -5.195312 7.15625 -5.375 C 7.15625 -6.03125 6.953125 -6.535156 6.546875 -6.890625 C 6.148438 -7.253906 5.582031 -7.4375 4.84375 -7.4375 L 3.75 -7.4375 L 2.78125 -1.953125 Z M 3.875 -1.953125 "/></g></g><g style="fill:#ffffff;fill-opacity:1;"><g transform="translate(263.12531, 117.798459)"><path style="stroke:none" d="M 3.78125 -7.59375 L 3.4375 -5.640625 L 6.5 -5.640625 L 6.203125 -3.90625 L 3.140625 -3.90625 L 2.765625 -1.8125 L 6.234375 -1.8125 L 5.90625 0 L 0.140625 0 L 1.8125 -9.40625 L 7.5625 -9.40625 L 7.25 -7.59375 Z M 3.78125 -7.59375 "/></g></g><g style="fill:#ffffff;fill-opacity:1;"><g transform="translate(272.649791, 117.798459)"><path style="stroke:none" d="M 8.5625 0 L 6.265625 0 L 3.46875 -5.796875 L 2.4375 0 L 0.140625 0 L 1.8125 -9.40625 L 4.09375 -9.40625 L 6.890625 -3.578125 L 7.921875 -9.40625 L 10.21875 -9.40625 Z M 8.5625 0 "/></g></g><g style="fill:#ffffff;fill-opacity:1;"><g transform="translate(285.000337, 117.798459)"><path style="stroke:none" d="M 8.5625 -9.40625 L 8.265625 -7.59375 L 5.765625 -7.59375 L 4.421875 0 L 2.125 0 L 3.46875 -7.59375 L 0.984375 -7.59375 L 1.296875 -9.40625 Z M 8.5625 -9.40625 "/></g></g><g style="fill:#ffffff;fill-opacity:1;"><g transform="translate(295.194499, 117.798459)"><path style="stroke:none" d="M 3.890625 0.09375 C 2.867188 0.09375 2.035156 -0.125 1.390625 -0.5625 C 0.753906 -1.007812 0.4375 -1.640625 0.4375 -2.453125 C 0.4375 -2.535156 0.445312 -2.65625 0.46875 -2.8125 L 2.859375 -2.8125 C 2.828125 -2.46875 2.90625 -2.195312 3.09375 -2 C 3.28125 -1.8125 3.566406 -1.71875 3.953125 -1.71875 C 4.296875 -1.71875 4.566406 -1.789062 4.765625 -1.9375 C 4.972656 -2.09375 5.078125 -2.304688 5.078125 -2.578125 C 5.078125 -2.867188 4.945312 -3.101562 4.6875 -3.28125 C 4.4375 -3.457031 4.046875 -3.660156 3.515625 -3.890625 C 2.992188 -4.097656 2.566406 -4.296875 2.234375 -4.484375 C 1.910156 -4.679688 1.628906 -4.941406 1.390625 -5.265625 C 1.148438 -5.597656 1.03125 -6.015625 1.03125 -6.515625 C 1.019531 -7.128906 1.171875 -7.664062 1.484375 -8.125 C 1.796875 -8.582031 2.226562 -8.929688 2.78125 -9.171875 C 3.332031 -9.410156 3.96875 -9.53125 4.6875 -9.53125 C 5.332031 -9.53125 5.90625 -9.429688 6.40625 -9.234375 C 6.90625 -9.035156 7.289062 -8.742188 7.5625 -8.359375 C 7.84375 -7.984375 7.984375 -7.535156 7.984375 -7.015625 C 7.984375 -6.878906 7.976562 -6.78125 7.96875 -6.71875 L 5.53125 -6.71875 C 5.539062 -6.757812 5.546875 -6.8125 5.546875 -6.875 C 5.546875 -7.125 5.457031 -7.328125 5.28125 -7.484375 C 5.101562 -7.640625 4.863281 -7.71875 4.5625 -7.71875 C 4.238281 -7.71875 3.976562 -7.640625 3.78125 -7.484375 C 3.582031 -7.328125 3.484375 -7.117188 3.484375 -6.859375 C 3.484375 -6.585938 3.609375 -6.359375 3.859375 -6.171875 C 4.109375 -5.992188 4.492188 -5.785156 5.015625 -5.546875 C 5.546875 -5.304688 5.976562 -5.082031 6.3125 -4.875 C 6.644531 -4.664062 6.929688 -4.390625 7.171875 -4.046875 C 7.410156 -3.703125 7.53125 -3.28125 7.53125 -2.78125 C 7.53125 -2.226562 7.382812 -1.734375 7.09375 -1.296875 C 6.800781 -0.859375 6.378906 -0.515625 5.828125 -0.265625 C 5.273438 -0.0234375 4.628906 0.09375 3.890625 0.09375 Z M 3.890625 0.09375 "/></g></g></g></svg>